Coordinates
version=1
nRows=11
nColumns=36
inDegrees=yes

Units are S.I. units (second, meters, Newtons, ...)
If the header above contains a line with 'inDegrees', this indicates whether rotational values are in degrees (yes) or radians (no).

endheader
time	pelvis_tilt	pelvis_list	pelvis_rotation	pelvis_tx	pelvis_ty	pelvis_tz	hip_flexion_r	hip_adduction_r	hip_rotation_r	knee_angle_r	knee_angle_r_beta	ankle_angle_r	subtalar_angle_r	mtp_angle_r	hip_flexion_l	hip_adduction_l	hip_rotation_l	knee_angle_l	knee_angle_l_beta	ankle_angle_l	subtalar_angle_l	mtp_angle_l	lumbar_extension	lumbar_bending	lumbar_rotation	arm_flex_r	arm_add_r	arm_rot_r	elbow_flex_r	pro_sup_r	arm_flex_l	arm_add_l	arm_rot_l	elbow_flex_l	pro_sup_l
      2.63333330	      8.52982272	     -1.92033273	     -1.36833014	      0.12230535	      0.90107927	      0.13122681	     14.56790580	     13.51616234	      2.14190804	     39.70183074	      0.69292767	     13.20821331	    -10.21232102	     -7.49999987	     29.34886647	     -9.64846293	     -4.37778468	      0.26055015	      0.00454746	      3.71429287	     11.07212915	     -7.49999987	    -24.63177742	      6.38553240	     -0.77605659	     35.53591068	      5.70886213	     61.95130445	    120.94372178	     94.81309588	     43.81456428	      6.31035204	     65.01069322	    123.36869881	     70.25095810
      2.65000000	      8.46360610	     -2.12396186	     -1.24579916	      0.12037974	      0.89611344	      0.13112451	     15.64328059	     13.80021076	      1.99321504	     40.94100333	      0.71455531	     13.79117507	    -10.97514328	     -7.49999987	     29.82445591	    -10.03588032	     -4.45931509	      0.24629016	      0.00429857	      3.05738432	     11.14544548	     -7.49999987	    -25.23410411	      6.51989896	     -0.50382155	     35.86469923	      5.82868806	     62.13254450	    120.81439584	     94.74344203	     43.88750777	      6.35909955	     65.14187737	    123.58557367	     70.26792253
      2.66666670	      8.16525227	     -2.39131229	     -1.08982078	      0.11814245	      0.89217769	      0.13101330	     17.19061344	     14.17095333	      1.92929452	     42.42232209	      0.74040920	     14.80471770	    -11.53107041	     -7.49999987	     30.37276429	    -10.25583708	     -4.37547144	      0.25745952	      0.00449352	      2.94749942	     10.04897572	     -7.49999987	    -25.45558432	      6.81272774	     -0.29975900	     36.01581449	      5.89913981	     62.34571881	    120.45889388	     92.64467066	     43.76495904	      6.20703778	     65.19064603	    123.51360298	     69.85547465
      2.68333330	      8.29573646	     -2.43245333	     -1.09757036	      0.11682615	      0.88992762	      0.13170489	     17.85078252	     14.33295121	      2.12270568	     43.42499677	      0.75790917	     14.33251274	    -14.30391052	     -7.49999987	     30.24719666	    -10.34576844	     -4.91110044	      0.26548703	      0.00463362	      2.88890614	     10.04981745	     -7.49999987	    -26.40228354	      6.78058280	     -0.33478701	     36.56380125	      6.17105652	     62.80492034	    119.98897857	     95.14388212	     44.04690598	      5.79085416	     65.03173347	    124.19522962	     71.09926224
      2.70000000	      8.21011650	     -2.67615199	     -1.15153615	      0.11566277	      0.88489427	      0.13201030	     18.59326957	     14.69849441	      1.97089341	     44.32139624	      0.77355429	     15.18475372	    -15.61444462	     -7.49999987	     30.43708428	    -10.67312404	     -5.09421085	      0.26525170	      0.00462952	      2.98085411	      9.59263887	     -7.49999987	    -26.97252246	      6.88662591	     -0.06680658	     36.88093420	      6.18587198	     63.10238268	    119.85685948	     93.45486230	     44.29495158	      5.60734463	     64.77566052	    124.32975862	     70.74775985
      2.71666670	      8.18081488	     -2.83656741	     -1.17628665	      0.11449490	      0.88321667	      0.13210295	     19.24910785	     14.92978854	      1.72606498	     45.13198789	      0.78770179	     15.36368494	    -18.59989160	     -7.49999987	     30.57048561	    -10.89512867	     -5.02967845	      0.26181223	      0.00456949	      3.03811569	      9.48988456	     -7.49999987	    -27.56464077	      6.93506300	      0.10016234	     37.19608889	      6.24394978	     63.52730526	    119.61387824	     92.82577271	     44.42426817	      5.50079024	     64.70439612	    124.36426478	     70.68105505
      2.73333330	      8.09524101	     -3.12160825	     -1.18710540	      0.11258087	      0.88003302	      0.13258452	     19.70534627	     15.37513489	      1.70486621	     45.66831404	      0.79706244	     15.67007311	    -20.01325729	     -7.49999987	     30.86416881	    -11.27784723	     -4.88086238	      0.25871792	      0.00451548	      2.73394206	      9.06898847	     -7.49999987	    -28.10788442	      7.13428441	      0.31429894	     37.51210326	      6.24645562	     63.99495057	    119.40283308	     90.07218307	     44.60947166	      5.46368687	     64.56690070	    124.32781081	     70.14362339
      2.75000000	      8.01276909	     -3.27368357	     -1.18419697	      0.11111398	      0.87562019	      0.13136198	     20.55827847	     15.58331525	      1.42747583	     46.78708386	      0.81658866	     16.32288895	    -21.61436754	     -7.49999987	     31.10270244	    -11.36531888	     -4.83794907	      0.27230470	      0.00475261	      2.68824598	      8.81732984	     -7.49999987	    -28.66334239	      7.18200237	      0.39344168	     37.84435151	      6.22609374	     64.35882327	    119.60405642	     88.66356797	     44.90631095	      5.44786424	     64.47532254	    124.30778817	     69.93866421
      2.76666670	      7.72942053	     -3.35541750	     -1.14665395	      0.10987991	      0.87257908	      0.13181865	     21.65762101	     15.78726706	      1.34773080	     48.07829068	      0.83912447	     16.50641333	    -22.66998282	     -7.49999987	     31.55602536	    -11.46952750	     -4.73019599	      0.29610108	      0.00516794	      2.48283222	      9.07515745	     -7.49999987	    -28.95053678	      7.14876431	      0.59998900	     37.84148956	      6.14555759	     64.01898784	    119.76449672	     95.23635074	     45.07291383	      5.58352122	     64.32474448	    124.07220823	     72.54819746
      2.78333330	      7.53733315	     -3.44488743	     -0.90094187	      0.10975670	      0.86898414	      0.13187867	     22.45619785	     15.88548475	      0.97897744	     49.16227966	      0.85804365	     16.88289417	    -23.41153114	     -7.49999987	     31.88570415	    -11.40114741	     -4.51472415	      0.32813755	      0.00572708	      2.32074475	      8.97836217	     -7.49999987	    -29.39066155	      7.23275484	      0.72571764	     38.00032828	      6.11454776	     64.23798121	    120.02735999	     95.64387856	     45.35465804	      5.71848900	     64.47390373	    123.98595889	     72.96283864
      2.80000000	      7.42686356	     -3.43658844	     -0.73511525	      0.10926417	      0.86547566	      0.13114776	     23.09869416	     15.90093990	      0.77509518	     50.03726328	      0.87331499	     17.04918516	    -23.71658978	     -7.49999987	     32.25544735	    -11.25085903	     -4.53851858	      0.35941893	      0.00627304	      2.05912610	      8.99964262	     -7.49999987	    -29.79325700	      7.10944664	      0.70433527	     38.20206440	      5.96757828	     64.48204633	    120.45683527	     93.84084642	     45.72353130	      5.82588676	     64.62079463	    123.76554847	     72.43516818
